<svg id="그룹_170" data-name="그룹 170" xmlns="http://www.w3.org/2000/svg" xmlns:xlink="http://www.w3.org/1999/xlink" width="18" height="12" viewBox="0 0 18 12">
  <defs>
    <style>
      .cls-1 {
        fill: #aaa;
      }

      .cls-2 {
        clip-path: url(#clip-path);
      }
    </style>
    <clipPath id="clip-path">
      <rect id="사각형_134" data-name="사각형 134" class="cls-1" width="18" height="12"/>
    </clipPath>
  </defs>
  <g id="그룹_169" data-name="그룹 169" class="cls-2">
    <path id="패스_203" data-name="패스 203" class="cls-1" d="M173.122,96a2.4,2.4,0,1,0,2.455,2.4,2.43,2.43,0,0,0-2.455-2.4" transform="translate(-164.122 -92.4)"/>
    <path id="패스_204" data-name="패스 204" class="cls-1" d="M9,0A9.675,9.675,0,0,0,0,6a9.675,9.675,0,0,0,9,6,9.67,9.67,0,0,0,9-6A9.67,9.67,0,0,0,9,0M9,10A4.048,4.048,0,0,1,4.909,6a4.092,4.092,0,0,1,8.182,0A4.048,4.048,0,0,1,9,10"/>
  </g>
</svg>
