<svg xmlns="http://www.w3.org/2000/svg" xmlns:xlink="http://www.w3.org/1999/xlink" width="120" height="120" viewBox="0 0 120 120">
  <defs>
    <style>
      .cls-1 {
        fill: none;
      }

      .cls-2 {
        opacity: 0.2;
      }

      .cls-3 {
        clip-path: url(#clip-path);
      }

      .cls-4, .cls-5 {
        fill: #fff;
      }

      .cls-4 {
        fill-rule: evenodd;
      }
    </style>
    <clipPath id="clip-path">
      <rect id="사각형_80" data-name="사각형 80" class="cls-1" width="120" height="120" transform="translate(0 0.306)"/>
    </clipPath>
  </defs>
  <g id="로고" class="cls-2" transform="translate(0 -0.306)">
    <g id="그룹_83" data-name="그룹 83" class="cls-3">
      <path id="패스_151" data-name="패스 151" class="cls-4" d="M60,0a60,60,0,1,0,60,60A60,60,0,0,0,60,0m0,118.183A58.186,58.186,0,1,1,118.179,60,58.185,58.185,0,0,1,60,118.183"/>
      <path id="패스_152" data-name="패스 152" class="cls-5" d="M9.481,52.5l4.1-2.159.509.464-.112.967-3.87,2.006L10,54.752l3.59.416-.168,1.445-8.445-.98.168-1.444,3.455.4.108-.922L5.488,51.2l.184-1.589Z"/>
      <path id="패스_153" data-name="패스 153" class="cls-5" d="M13.556,48.961a5.681,5.681,0,0,1-3.411-.1A5.654,5.654,0,0,1,7.17,47.211,2.992,2.992,0,0,1,8.4,42.7a5.646,5.646,0,0,1,3.4.1,5.709,5.709,0,0,1,3.007,1.659,2.669,2.669,0,0,1,.456,2.548,2.722,2.722,0,0,1-1.713,1.955m-.058-3.7a4.807,4.807,0,0,0-2.089-1.013,4.8,4.8,0,0,0-2.29-.192,1.366,1.366,0,0,0-.647,2.362,4.8,4.8,0,0,0,2.069,1,4.97,4.97,0,0,0,2.309.209,1.3,1.3,0,0,0,1.051-.959,1.359,1.359,0,0,0-.4-1.409"/>
      <path id="패스_154" data-name="패스 154" class="cls-5" d="M18.378,37.043l.289.559-.4.9-3.653.029c-.024.07-.07.181-.137.331l-.5,1.122,3.021,1.355-.6,1.327L8.64,39.185l1.1-2.449a3.261,3.261,0,0,1,1.537-1.775,2.47,2.47,0,0,1,2.067.106,2.808,2.808,0,0,1,1.109.835,2.029,2.029,0,0,1,.419,1.2ZM13.259,38.18q.578-1.287-.515-1.776t-1.692.847l-.531,1.185,2.184.979Z"/>
      <path id="패스_155" data-name="패스 155" class="cls-5" d="M12.2,31.8l2.765-4.326,1.187.759-1.969,3.082,1.762,1.126,1.879-2.94,1.17.746-1.88,2.941,1.857,1.187,2.1-3.29.735.47.031.949-2.476,3.874Z"/>
      <path id="패스_156" data-name="패스 156" class="cls-5" d="M25.972,27.435l-1.815-.877-1.728,1.995,1.141,1.655L22.6,31.332l-4.917-7.308,1.275-1.471,8.014,3.731Zm-4.357-.061,1.245-1.437L19.5,24.314Z"/>
      <path id="패스_157" data-name="패스 157" class="cls-5" d="M28.385,23.253l.952-.761a1.151,1.151,0,0,0,.482-.777,1.216,1.216,0,0,0-.319-.884l-3.739-4.686,1.153-.921L30.724,20a2.476,2.476,0,0,1,.641,1.807A2.35,2.35,0,0,1,30.39,23.4l-1.154.922Z"/>
      <path id="패스_158" data-name="패스 158" class="cls-5" d="M33.487,19.79a5.682,5.682,0,0,1-2.4-2.424,5.65,5.65,0,0,1-1.018-3.246,2.7,2.7,0,0,1,1.42-2.171,2.7,2.7,0,0,1,2.583-.245,5.648,5.648,0,0,1,2.4,2.414A5.725,5.725,0,0,1,37.5,17.393a2.674,2.674,0,0,1-1.426,2.161,2.727,2.727,0,0,1-2.589.236M36,17.066a4.8,4.8,0,0,0-.816-2.173,4.788,4.788,0,0,0-1.527-1.719,1.367,1.367,0,0,0-2.1,1.266,4.815,4.815,0,0,0,.809,2.152A4.971,4.971,0,0,0,33.9,18.334a1.3,1.3,0,0,0,1.423.03,1.358,1.358,0,0,0,.68-1.3"/>
      <path id="패스_159" data-name="패스 159" class="cls-5" d="M41.583,11.75l3.868,2.555-.162.669-.9.368-3.622-2.426-.911.372,1.363,3.345-1.346.549L36.663,9.311l1.347-.549,1.312,3.222.86-.351L40.8,7.627l1.481-.6Z"/>
      <path id="패스_160" data-name="패스 160" class="cls-5" d="M50.709,8.758l1.114,4.6-.956.232-.425-.518a2,2,0,0,1-.551.72,2.083,2.083,0,0,1-.855.414,2.557,2.557,0,0,1-2.448-.557,5.83,5.83,0,0,1-1.53-3.036,5.66,5.66,0,0,1,.005-3.4,2.692,2.692,0,0,1,2.006-1.648,3.152,3.152,0,0,1,1.453-.036,2.3,2.3,0,0,1,1.134.618,2.659,2.659,0,0,1,.667,1.161l.066.226L49,7.872,48.92,7.7a1.335,1.335,0,0,0-.582-.67,1.255,1.255,0,0,0-.937-.089,1.327,1.327,0,0,0-1.01,1.033,4.808,4.808,0,0,0,.124,2.289,4.825,4.825,0,0,0,.943,2.114,1.308,1.308,0,0,0,1.366.434,1.386,1.386,0,0,0,.9-.622,1.494,1.494,0,0,0,.1-1.129l-.166-.685-1.37.332L47.98,9.419Z"/>
      <path id="패스_161" data-name="패스 161" class="cls-5" d="M54.458,9.55a2.938,2.938,0,0,0,.506,1.591,1.313,1.313,0,0,0,2.152-.175,2.946,2.946,0,0,0,.241-1.653l-.408-4.994,1.472-.12L58.845,9.4a3.726,3.726,0,0,1-.553,2.565,3.12,3.12,0,0,1-4.326.353A3.725,3.725,0,0,1,53,9.882l-.426-5.207,1.472-.12Z"/>
      <path id="패스_162" data-name="패스 162" class="cls-5" d="M67.847,13.333l-.272-2L64.958,11l-.749,1.865-1.476-.191,3.378-8.134,1.93.25,1.314,8.742ZM65.491,9.666l1.886.244-.5-3.7Z"/>
      <path id="패스_163" data-name="패스 163" class="cls-5" d="M75.353,14.207a2.413,2.413,0,0,1-1.2.545,3.445,3.445,0,0,1-1.515-.109,3.043,3.043,0,0,1-1.31-.735,2.651,2.651,0,0,1-.725-1.217,2.618,2.618,0,0,1,.014-1.431l.076-.269,1.41.4-.055.24a1.4,1.4,0,0,0,.136,1.061,1.337,1.337,0,0,0,.835.643,1.51,1.51,0,0,0,.961-.008.812.812,0,0,0,.535-.558.9.9,0,0,0-.011-.555,1.809,1.809,0,0,0-.412-.6,11.313,11.313,0,0,0-.97-.867A6.148,6.148,0,0,1,72.084,9.71a2.176,2.176,0,0,1-.427-.958,2.573,2.573,0,0,1,.1-1.1A2.135,2.135,0,0,1,72.41,6.6a2.387,2.387,0,0,1,1.164-.543,3.206,3.206,0,0,1,1.462.093,3.143,3.143,0,0,1,1.281.693,2.379,2.379,0,0,1,.708,1.112,2.258,2.258,0,0,1-.018,1.3l-.123.4-1.421-.4.1-.366a1.026,1.026,0,0,0-.127-.867,1.3,1.3,0,0,0-.775-.549,1.31,1.31,0,0,0-.891.027.832.832,0,0,0-.508.565.928.928,0,0,0,.117.736,3.733,3.733,0,0,0,.848.908,11.078,11.078,0,0,1,1.342,1.28A2.329,2.329,0,0,1,76.109,12a2.466,2.466,0,0,1-.082,1.133,2.162,2.162,0,0,1-.674,1.071"/>
      <path id="패스_164" data-name="패스 164" class="cls-5" d="M81.651,16.875a2.408,2.408,0,0,1-1.266.366,3.431,3.431,0,0,1-1.483-.327A3.03,3.03,0,0,1,77.712,16a2.644,2.644,0,0,1-.542-1.309,2.615,2.615,0,0,1,.221-1.414l.114-.255,1.338.6-.09.229a1.4,1.4,0,0,0-.019,1.07,1.339,1.339,0,0,0,.734.756,1.512,1.512,0,0,0,.953.131.815.815,0,0,0,.61-.475.891.891,0,0,0,.068-.551,1.811,1.811,0,0,0-.321-.651,11.013,11.013,0,0,0-.835-1,6.237,6.237,0,0,1-.877-1.176,2.185,2.185,0,0,1-.285-1.009,2.566,2.566,0,0,1,.254-1.075,2.132,2.132,0,0,1,.8-.947,2.391,2.391,0,0,1,1.231-.368,3.207,3.207,0,0,1,1.433.3,3.137,3.137,0,0,1,1.167.871,2.372,2.372,0,0,1,.54,1.2,2.262,2.262,0,0,1-.2,1.281l-.179.373-1.348-.6.155-.347a1.031,1.031,0,0,0,0-.877,1.291,1.291,0,0,0-.687-.655,1.313,1.313,0,0,0-.886-.1.835.835,0,0,0-.584.486.929.929,0,0,0,.01.745,3.729,3.729,0,0,0,.708,1.021,10.928,10.928,0,0,1,1.142,1.46,2.332,2.332,0,0,1,.384,1.09,2.46,2.46,0,0,1-.245,1.11,2.152,2.152,0,0,1-.822.962"/>
      <path id="패스_165" data-name="패스 165" class="cls-5" d="M83.609,17.983a5.68,5.68,0,0,1,1.11-3.228,5.646,5.646,0,0,1,2.46-2.349,2.7,2.7,0,0,1,2.575.313,2.7,2.7,0,0,1,1.363,2.208,5.651,5.651,0,0,1-1.1,3.217,5.725,5.725,0,0,1-2.478,2.379,2.671,2.671,0,0,1-2.569-.324,2.723,2.723,0,0,1-1.357-2.216m3.554,1.046a4.8,4.8,0,0,0,1.588-1.693,4.808,4.808,0,0,0,.865-2.129,1.367,1.367,0,0,0-2.064-1.321,4.814,4.814,0,0,0-1.571,1.677,4.977,4.977,0,0,0-.886,2.143,1.3,1.3,0,0,0,.6,1.288,1.356,1.356,0,0,0,1.465.035"/>
      <path id="패스_166" data-name="패스 166" class="cls-5" d="M94.314,18.784A4.815,4.815,0,0,0,92.506,20.2a4.815,4.815,0,0,0-1.189,1.986,1.3,1.3,0,0,0,.427,1.367,1.422,1.422,0,0,0,.895.372,1.264,1.264,0,0,0,.881-.357l.068-.06,1.091.961-.089.085a2.746,2.746,0,0,1-1.895.881,2.822,2.822,0,0,1-1.883-.824,2.729,2.729,0,0,1-1.007-2.393,5.624,5.624,0,0,1,1.576-3.008,5.657,5.657,0,0,1,2.789-1.949,3.014,3.014,0,0,1,3.486,2.474,2.647,2.647,0,0,1-.55,1.893l-.138.191-1.075-.946.093-.172a1.558,1.558,0,0,0,.185-.88,1.189,1.189,0,0,0-.435-.8,1.328,1.328,0,0,0-1.422-.239"/>
      <rect id="사각형_78" data-name="사각형 78" class="cls-5" width="8.501" height="1.477" transform="matrix(0.738, -0.675, 0.675, 0.738, 93.911, 27.349)"/>
      <path id="패스_167" data-name="패스 167" class="cls-5" d="M98.71,33.311l1.261-1.572-1.557-2.132-1.868.741-.878-1.2,8.224-3.155,1.148,1.572L99.607,34.54Zm1.035-4.233,1.122,1.536L103.2,27.7Z"/>
      <path id="패스_168" data-name="패스 168" class="cls-5" d="M106.752,32.9,105.7,30.98l1.237-.676,2.824,5.161-1.236.676-1.053-1.923-6.211,3.4-.72-1.315Z"/>
      <rect id="사각형_79" data-name="사각형 79" class="cls-5" width="8.501" height="1.477" transform="translate(102.645 40.511) rotate(-22.867)"/>
      <path id="패스_169" data-name="패스 169" class="cls-5" d="M104.965,43.722a7.205,7.205,0,0,1,6.357-1.854,2.992,2.992,0,0,1,1.309,4.488,5.647,5.647,0,0,1-2.948,1.7,5.723,5.723,0,0,1-3.431.162,2.672,2.672,0,0,1-1.722-1.933,2.723,2.723,0,0,1,.435-2.562m1.989,3.125a6.321,6.321,0,0,0,4.362-1.266,1.367,1.367,0,0,0-.686-2.352,4.806,4.806,0,0,0-2.287.23,4.961,4.961,0,0,0-2.076,1.031,1.3,1.3,0,0,0-.394,1.367,1.358,1.358,0,0,0,1.081.99"/>
      <path id="패스_170" data-name="패스 170" class="cls-5" d="M114.511,51.259q-2.528,1.521-5.86,3.447l1.085-.157q2.874-.36,5.1-.682l.18,1.443-8.435,1.053-.215-1.721q1.688-1.011,5.024-2.915l1.074-.608-1.128.175-5.3.717-.181-1.442,8.437-1.053Z"/>
      <path id="패스_171" data-name="패스 171" class="cls-5" d="M13.75,76.514a7.362,7.362,0,0,0-1.165.528,4.248,4.248,0,0,0-.824.705q-.453.477-1.618,1.867l-.293.351-.624-.179-.3-.8q.835-.961,1.232-1.4a7.857,7.857,0,0,1,.668-.673q-.385-.008-1.035-.067t-1.915-.2l-.311-.821L7.9,75.3q2.121.3,2.878.368a4.69,4.69,0,0,0,1.2-.013,8.145,8.145,0,0,0,1.294-.4l1.661-.628.477,1.26Zm.1,5.209-1.164.441-.344-.907L8.462,82.728,8,81.506l8.935-3.382.462,1.222-3.885,1.471Z"/>
      <path id="패스_172" data-name="패스 172" class="cls-5" d="M14.707,87.291,12.995,88.4l2.688,4.145-.651.422-.744-.247L11.2,87.961l2.775-1.8ZM17.2,88.449l-.744-.247-2.105-3.245,4.024-2.611,2.245,3.46-1.062.688-1.522-2.346-1.919,1.244,1.717,2.646Zm2.827,1.038.527.813-1.078.7-.528-.813-2.372,1.539-.733-1.13,5.908-3.834.733,1.131Z"/>
      <path id="패스_173" data-name="패스 173" class="cls-5" d="M23.949,99.013l.662-.665.94.936L22.7,102.149l-4.34-4.321,2.822-2.836.933.929-.633.637Zm-1.355,1.36.569-.571L20.7,97.347l-.569.571Zm5.9-5.953.955.95-3.5,3.516-.956-.95L26.224,96.7,25.2,95.683l-.843.847-.779-.085L21.021,93.9l3.226-3.241.925.922-.763.767,1.143,1.137.793-.8.926.922L26.082,94.8l1.02,1.015Zm-4.567.7.792-.8-1.143-1.138-.792.8Z"/>
      <path id="패스_174" data-name="패스 174" class="cls-5" d="M32.968,108.742l-.78.081-4.775-3.066,1.787-2.782,1.133.728-1.1,1.717,4.157,2.67Zm-1.111-5.4a2.043,2.043,0,0,0,1.177-.311,3.094,3.094,0,0,0,.982-1,2.738,2.738,0,0,0,.508-1.942A2.544,2.544,0,0,0,31.6,98.21a2.734,2.734,0,0,0-1.555,1.27,2.7,2.7,0,0,0-.5,1.93,2.264,2.264,0,0,0,1.088,1.517,2.439,2.439,0,0,0,1.22.413m1.375-3.01a2.007,2.007,0,0,1-1.079,1.69,1.063,1.063,0,0,1-1.323-.849,2.01,2.01,0,0,1,1.088-1.685,1.043,1.043,0,0,1,1.314.844m3.3-.01,1.134.728-3.806,5.926-1.133-.728Z"/>
      <path id="패스_175" data-name="패스 175" class="cls-5" d="M45.008,106.216l-1.195,4.446,2.208.594-.2.749-.719.314-2.9-.779,1.853-6.89,3.144.846-.329,1.222Zm5.055-.638,1.262.339-2.481,9.226-1.261-.339,1.126-4.189-.66-.178-1.058,3.933-1.242-.334,2.372-8.821,1.242.334-.98,3.647.66.177Z"/>
      <path id="패스_176" data-name="패스 176" class="cls-5" d="M58.454,108.132l-.054,1.08-4.863-.243.055-1.08ZM57.715,112a1.779,1.779,0,0,1-.78.564,2.635,2.635,0,0,1-1.1.159,2.711,2.711,0,0,1-1.076-.263,1.762,1.762,0,0,1-.725-.624,1.438,1.438,0,0,1-.227-.87,1.41,1.41,0,0,1,.313-.837,1.772,1.772,0,0,1,.783-.544,2.718,2.718,0,0,1,1.1-.155,2.8,2.8,0,0,1,1.07.253,1.78,1.78,0,0,1,.727.6,1.336,1.336,0,0,1,.234.844,1.527,1.527,0,0,1-.314.874m-1.9,1.244-.074,1.488,4.832.241-.036.714-.636.459-5.566-.278.134-2.692Zm1.749-5.973-.53.382-2.365-.118.054-1.08,2.875.143Zm-2.248,4.2a.959.959,0,0,0,.567.192.977.977,0,0,0,.585-.134.5.5,0,0,0,.251-.417.5.5,0,0,0-.209-.429,1.1,1.1,0,0,0-1.152-.058.494.494,0,0,0-.25.407.5.5,0,0,0,.208.439m5.31-1.666.969.048-.063,1.244-.968-.049-.148,2.967-1.305-.065.366-7.34,1.306.065Z"/>
      <path id="패스_177" data-name="패스 177" class="cls-5" d="M68.3,106.282l.69,4.251-.525.582-3.647.592-.77-4.735Zm-.737,3.739-.376-2.318-1.632.265.376,2.318Zm5.007,4.212-.526.581-5.6.91-.522-3.213,1.33-.216.319,1.965,4.876-.793Zm-2.969-8.6,1.33-.216,1.13,6.951-1.33.216Z"/>
      <path id="패스_178" data-name="패스 178" class="cls-5" d="M82.554,106.473l-2.981,1.177L80,108.732l2.241-.884,1.3,3.3-1.253.5-.855-2.164L76.9,111.273l-.45-1.139,2.3-.907-.427-1.082-2.981,1.176-.457-1.158,5.183-2.046-.779-1.975L74.833,105.9l-.472-1.2,5.687-2.245L81.3,105.63l.8-.315Z"/>
      <path id="패스_179" data-name="패스 179" class="cls-5" d="M86.063,101.536a2.109,2.109,0,0,0,.279-.728.937.937,0,0,0-.176-.558l-2.036,1.362-.687-1.026,5.192-3.473.687,1.026L87.286,99.5a.937.937,0,0,0,.447.376,2.1,2.1,0,0,0,.781.019q.544-.057,2.127-.318l.128.761-.9.6-.272.034q-.7.113-1.214.186a5.376,5.376,0,0,1-.75.072,5.534,5.534,0,0,1-.353.666q-.266.448-.635,1.051l-.136.238-.9.6-.655-.41q.844-1.362,1.107-1.844m3.111.8,2.663-1.782.681,1.018L86.07,105.89l-.681-1.018,2.664-1.783-.477-.712,1.12-.749Zm-1.459,4.648-.682-1.018,5.175-3.462,1.663,2.486-1.12.749-.982-1.467Z"/>
      <path id="패스_180" data-name="패스 180" class="cls-5" d="M99.612,92.784l.939.908-2.222,2.3,2.626,2.542-.951.982-2.626-2.541-2.222,2.3-.939-.909,3.876-4.005L96,92.33l-3.336,3.447-.954-.923,4.26-4.4L99.016,93.4Z"/>
      <path id="패스_181" data-name="패스 181" class="cls-5" d="M100.18,85.044l.077.649L99.114,87.53l-.867-.539L99.66,84.72Zm1.083-.312.867.54-2.356,3.787-.867-.54Zm-.47-1.987.713-1.144,4.869,3.03-.711,1.144-.416-.258-.6.97-1-.625.6-.971-.642-.4-.6.97-1.005-.625.6-.971Zm3.4,4.305a1.675,1.675,0,0,1,.1.9,2.823,2.823,0,0,1-1.1,1.768,1.673,1.673,0,0,1-.85.313,1.349,1.349,0,0,1-.819-.21,1.366,1.366,0,0,1-.558-.641,1.669,1.669,0,0,1-.1-.88,2.471,2.471,0,0,1,.368-.968,2.721,2.721,0,0,1,.73-.8,1.745,1.745,0,0,1,.861-.33,1.321,1.321,0,0,1,.824.2,1.351,1.351,0,0,1,.55.642m-1.549,1.688a.995.995,0,0,0,.534-.858.422.422,0,0,0-.2-.361.472.472,0,0,0-.435-.036.91.91,0,0,0-.534.858.473.473,0,0,0,.224.374.423.423,0,0,0,.413.023m4.041-2.349-.538-.334.7-1.127,2.774,1.726-3.2,5.147-2.738-1.7.685-1.1.5.313Zm1.282.8-.442-.275-1.817,2.921.442.275Z"/>
      <path id="패스_182" data-name="패스 182" class="cls-5" d="M104.833,75.437l.214.618-.872,2.441-1.037-.369L104.18,75.2Zm1.075-.581,1.038.37L105.242,80l-1.038-.37Zm-.735-2.528,9,3.21-.453,1.269-1.586-.566.008,1.195-1.553,4.355-1.116-.4.593-1.663-.634-.226a1.951,1.951,0,0,1-.915.817,1.563,1.563,0,0,1-1.142,0,1.587,1.587,0,0,1-1.012-.978,2.794,2.794,0,0,1,1.056-2.961,1.588,1.588,0,0,1,1.4-.118,1.571,1.571,0,0,1,.887.734,1.991,1.991,0,0,1,.192,1.223l.625.223.418-1.173-.05-1.47-6.172-2.2Zm3.205,6.768a1.2,1.2,0,0,0,.446-1.25.625.625,0,0,0-.394-.4.659.659,0,0,0-.582.052,1.183,1.183,0,0,0-.446,1.25.659.659,0,0,0,.418.409.623.623,0,0,0,.558-.061"/>
      <path id="패스_183" data-name="패스 183" class="cls-4" d="M60,104.468A44.473,44.473,0,1,1,104.478,60,44.532,44.532,0,0,1,60,104.468m0-87.034h0A42.559,42.559,0,1,0,102.552,60,42.607,42.607,0,0,0,60,17.434"/>
      <path id="패스_184" data-name="패스 184" class="cls-4" d="M113.452,61.151a3.3,3.3,0,0,1,1.659,3.794,2.424,2.424,0,0,0-4.493-1.5.911.911,0,0,1-1.184.321.927.927,0,0,1-.4-1.231,3.238,3.238,0,0,1,4.42-1.384"/>
      <path id="패스_185" data-name="패스 185" class="cls-4" d="M113.35,67.947a3.3,3.3,0,0,1-4.127-.373,2.417,2.417,0,0,0,2.741.024,2.441,2.441,0,0,0,.742-3.238v0a.9.9,0,0,1,.281-1.2.943.943,0,0,1,1.276.245,3.251,3.251,0,0,1-.913,4.54"/>
      <path id="패스_186" data-name="패스 186" class="cls-4" d="M107.514,64.688a3.293,3.293,0,0,1,2.315-3.438,2.427,2.427,0,0,0,1.131,4.6v0a.907.907,0,0,1,.9.829.931.931,0,0,1-.829,1,3.227,3.227,0,0,1-3.521-2.993"/>
      <path id="패스_187" data-name="패스 187" class="cls-4" d="M10.979,61.151a3.305,3.305,0,0,1,1.661,3.794,2.424,2.424,0,0,0-4.494-1.5.91.91,0,0,1-1.183.321.928.928,0,0,1-.4-1.231,3.237,3.237,0,0,1,4.419-1.384"/>
      <path id="패스_188" data-name="패스 188" class="cls-4" d="M10.878,67.947a3.3,3.3,0,0,1-4.128-.373,2.427,2.427,0,0,0,3.484-3.214v0a.9.9,0,0,1,.281-1.2.945.945,0,0,1,1.277.245,3.252,3.252,0,0,1-.914,4.54"/>
      <path id="패스_189" data-name="패스 189" class="cls-4" d="M5.043,64.688A3.293,3.293,0,0,1,7.358,61.25a2.427,2.427,0,0,0,1.131,4.6v0a.907.907,0,0,1,.9.829.931.931,0,0,1-.83,1,3.226,3.226,0,0,1-3.52-2.993"/>
      <path id="패스_190" data-name="패스 190" class="cls-4" d="M59.047,22.155A31.919,31.919,0,0,0,27.093,46.309,23.426,23.426,0,0,1,72.07,54.876h.018A8.851,8.851,0,0,0,80.613,63.2a8.984,8.984,0,0,0,9.131-8.527c1.353-16.569-9.532-31.972-30.7-32.52"/>
      <path id="패스_191" data-name="패스 191" class="cls-4" d="M91.419,79.419a31.923,31.923,0,0,0-2.984-39.944,23.435,23.435,0,0,1-31.58,33.172v.01A8.845,8.845,0,0,0,45.234,75.3a8.993,8.993,0,0,0,2.213,12.294c13.189,10.125,32.042,9.323,43.972-8.173"/>
      <path id="패스_192" data-name="패스 192" class="cls-4" d="M27.179,78.8A31.942,31.942,0,0,0,63.765,95.108,23.438,23.438,0,0,1,49.527,51.574l-.008-.015a8.837,8.837,0,0,0,3.175-11.477A8.984,8.984,0,0,0,40.817,36.2C25.664,43.022,17.429,60,27.179,78.8"/>
    </g>
  </g>
</svg>
